<?xml version="1.0" encoding="utf-8"?>
<!-- Generator: Adobe Illustrator 21.0.2, SVG Export Plug-In . SVG Version: 6.00 Build 0)  -->
<svg version="1.1" id="Layer_1" xmlns="http://www.w3.org/2000/svg" xmlns:xlink="http://www.w3.org/1999/xlink" x="0px" y="0px"
	 viewBox="0 0 222.5 189.1" style="enable-background:new 0 0 222.5 189.1;" xml:space="preserve">
<style type="text/css">
	.st0{fill:#3997D3;}
	.st1{fill:#F0C41B;}
	.st2{fill:#EE715E;}
	.st3{fill:#354459;}
	.st4{fill:#03ACA5;}
</style>
<g id="XMLID_503_">
	<path id="XMLID_530_" class="st0" d="M139,5.6c0-3.1,2.5-5.6,5.6-5.6l72.3,0c3.1,0,5.6,2.5,5.6,5.6c0,3-2.5,5.5-5.6,5.5h-72.3
		C141.6,11.1,139,8.7,139,5.6z"/>
	<path id="XMLID_529_" class="st1" d="M61.2,5.6c0-3.1,2.5-5.6,5.6-5.6l55.6,0c3.1,0,5.6,2.4,5.6,5.5s-2.5,5.6-5.6,5.6H66.8
		C63.7,11.1,61.2,8.7,61.2,5.6z"/>
	<path id="XMLID_528_" class="st2" d="M27.8,5.6c0-3.1,2.5-5.6,5.6-5.6l11.1,0c3.1,0,5.6,2.4,5.6,5.5s-2.5,5.6-5.6,5.6H33.4
		C30.3,11.1,27.8,8.7,27.8,5.6z"/>
	<path id="XMLID_527_" class="st3" d="M0,116.4c0-3.1,2.5-5.6,5.6-5.6H89c3.1,0,5.6,2.5,5.6,5.6S92.1,122,89,122H5.6
		C2.5,122,0,119.5,0,116.4z"/>
	<path id="XMLID_526_" class="st4" d="M105.6,116.4c0-3.1,2.5-5.6,5.6-5.6h77.9c3.1,0,5.6,2.5,5.6,5.6s-2.5,5.6-5.6,5.6h-77.8
		C108.2,122,105.7,119.5,105.6,116.4z"/>
	<path id="XMLID_525_" class="st4" d="M205.7,116.4c0-3.1,2.5-5.6,5.6-5.6h5.6c3.1,0,5.6,2.5,5.6,5.6s-2.5,5.6-5.6,5.6h-5.5
		C208.3,122,205.8,119.5,205.7,116.4z"/>
	<path id="XMLID_524_" class="st0" d="M161.2,138.6c0-3.1,2.5-5.6,5.6-5.6h50.1c3.1,0,5.6,2.5,5.6,5.6s-2.5,5.6-5.6,5.6h-50
		C163.8,144.2,161.3,141.7,161.2,138.6z"/>
	<path id="XMLID_523_" class="st1" d="M127.9,138.6c0-3.1,2.5-5.6,5.6-5.6h11.1c3.1,0,5.6,2.5,5.6,5.6s-2.5,5.6-5.6,5.6h-11.1
		C130.4,144.2,128,141.7,127.9,138.6z"/>
	<path id="XMLID_522_" class="st2" d="M27.8,138.6c0-3.1,2.5-5.6,5.6-5.6h77.9c3.1,0,5.6,2.5,5.6,5.6s-2.5,5.6-5.6,5.6H33.4
		C30.3,144.2,27.8,141.7,27.8,138.6z"/>
	<path id="XMLID_521_" class="st1" d="M139,72.3c0-3.1,2.5-5.6,5.6-5.6h72.3c3.1,0,5.6,2.5,5.6,5.6s-2.5,5.6-5.6,5.6h-72.3
		C141.6,77.9,139,75.4,139,72.3z"/>
	<path id="XMLID_520_" class="st2" d="M61.2,72.3c0-3.1,2.5-5.6,5.6-5.6h55.6c3.1,0,5.6,2.5,5.6,5.6s-2.5,5.6-5.6,5.6H66.8
		C63.7,77.9,61.2,75.4,61.2,72.3z"/>
	<path id="XMLID_519_" class="st1" d="M38.9,94.5c0-3.1,2.5-5.6,5.6-5.6H89c3.1,0,5.6,2.5,5.6,5.6s-2.5,5.6-5.6,5.6H44.5
		C41.5,100.1,38.9,97.6,38.9,94.5z"/>
	<path id="XMLID_518_" class="st3" d="M105.6,94.5c0-3.1,2.5-5.6,5.6-5.6h77.9c3.1,0,5.6,2.5,5.6,5.6s-2.5,5.6-5.6,5.6h-77.8
		C108.2,100.1,105.6,97.6,105.6,94.5z"/>
	<path id="XMLID_517_" class="st2" d="M205.7,94.6c0-3.1,2.5-5.6,5.6-5.6h5.6c3.1,0,5.6,2.4,5.6,5.5s-2.5,5.6-5.6,5.6h-5.5
		C208.3,100.1,205.7,97.7,205.7,94.6z"/>
	<path id="XMLID_516_" class="st1" d="M161.2,27.8c0-3.1,2.5-5.6,5.6-5.6h50.1c3.1,0,5.6,2.5,5.6,5.6s-2.5,5.6-5.6,5.6h-50
		C163.8,33.4,161.2,30.9,161.2,27.8z"/>
	<path id="XMLID_515_" class="st0" d="M127.9,27.8c0-3.1,2.5-5.6,5.6-5.6h11.1c3.1,0,5.6,2.5,5.6,5.6s-2.5,5.6-5.6,5.6h-11.1
		C130.4,33.4,127.9,30.9,127.9,27.8z"/>
	<path id="XMLID_514_" class="st4" d="M22.2,27.8c0-3.1,2.5-5.6,5.6-5.6h83.4c3.1,0,5.6,2.5,5.6,5.6s-2.5,5.6-5.6,5.6H27.8
		C24.8,33.4,22.2,30.9,22.2,27.8z"/>
	<path id="XMLID_513_" class="st0" d="M139,50c0-3.1,2.5-5.6,5.6-5.6h72.3c3.1,0,5.6,2.5,5.6,5.6s-2.5,5.6-5.6,5.6h-72.3
		C141.6,55.6,139,53.1,139,50z"/>
	<path id="XMLID_512_" class="st2" d="M61.2,50c0-3.1,2.5-5.6,5.6-5.6h55.6c3.1,0,5.6,2.5,5.6,5.6s-2.5,5.6-5.6,5.6H66.8
		C63.7,55.6,61.2,53.1,61.2,50z"/>
	<path id="XMLID_511_" class="st4" d="M0,50c0-3.1,2.5-5.6,5.6-5.6h38.9c3.1,0,5.6,2.5,5.6,5.6s-2.5,5.6-5.6,5.6H5.6
		C2.5,55.6,0,53.1,0,50z"/>
	<path id="XMLID_510_" class="st3" d="M61.2,161.2c0-3.1,2.5-5.6,5.6-5.6H89c3.1,0,5.6,2.5,5.6,5.6s-2.5,5.6-5.6,5.6H66.8
		C63.7,166.8,61.2,164.3,61.2,161.2z"/>
	<path id="XMLID_509_" class="st4" d="M105.6,161.2c0-3.1,2.5-5.6,5.6-5.6h77.9c3.1,0,5.6,2.5,5.6,5.6s-2.5,5.6-5.6,5.6h-77.8
		C108.2,166.8,105.6,164.3,105.6,161.2z"/>
	<path id="XMLID_508_" class="st1" d="M205.7,161.2c0-3.1,2.5-5.6,5.6-5.6h5.6c3.1,0,5.6,2.5,5.6,5.6s-2.5,5.6-5.6,5.6h-5.5
		C208.3,166.8,205.7,164.3,205.7,161.2z"/>
	<path id="XMLID_507_" class="st2" d="M161.2,183.5c0-3.1,2.5-5.6,5.6-5.6h50.1c3.1,0,5.6,2.5,5.6,5.6s-2.5,5.6-5.6,5.6h-50
		C163.8,189.1,161.3,186.6,161.2,183.5z"/>
	<path id="XMLID_506_" class="st3" d="M127.9,183.5c0-3.1,2.5-5.6,5.6-5.6h11.1c3.1,0,5.6,2.5,5.6,5.6s-2.5,5.6-5.6,5.6h-11.1
		C130.4,189.1,128,186.6,127.9,183.5z"/>
	<path id="XMLID_505_" class="st4" d="M66.7,183.5c0-3.1,2.5-5.6,5.6-5.6h38.9c3.1,0,5.6,2.5,5.6,5.6s-2.5,5.6-5.6,5.6H72.3
		C69.3,189.1,66.8,186.6,66.7,183.5z"/>
	<path id="XMLID_504_" class="st1" d="M38.9,183.5c0-3.1,2.5-5.6,5.6-5.6h5.6c3.1,0,5.6,2.5,5.6,5.6s-2.5,5.6-5.6,5.6h-5.6
		C41.5,189.1,39,186.6,38.9,183.5z"/>
</g>
</svg>
