<?xml version="1.0" encoding="utf-8"?>
<!-- Generator: Adobe Illustrator 19.0.0, SVG Export Plug-In . SVG Version: 6.00 Build 0)  -->
<svg version="1.1" id="Layer_1" xmlns="http://www.w3.org/2000/svg" xmlns:xlink="http://www.w3.org/1999/xlink" x="0px" y="0px"
	 viewBox="0 0 222.5 189.1" style="enable-background:new 0 0 222.5 189.1;" xml:space="preserve">
<style type="text/css">
	.st0{fill:#3997D3;}
	.st1{fill:#F0C41B;}
	.st2{fill:#EE715E;}
	.st3{fill:#354459;}
	.st4{fill:#03ACA5;}
</style>
<g id="XMLID_503_">
	<path id="XMLID_530_" class="st0" d="M77.9,11.1H5.6C2.5,11.1,0,8.6,0,5.6C0,2.5,2.5,0,5.6,0l72.3,0c3.1,0,5.6,2.5,5.6,5.6
		S80.9,11.1,77.9,11.1z"/>
	<path id="XMLID_529_" class="st1" d="M155.7,11.1h-55.6c-3.1,0-5.6-2.5-5.6-5.6S97,0,100.1,0l55.6,0c3.1,0,5.6,2.5,5.6,5.6
		S158.8,11.1,155.7,11.1z"/>
	<path id="XMLID_528_" class="st2" d="M189.1,11.1H178c-3.1,0-5.6-2.5-5.6-5.6S174.9,0,178,0l11.1,0c3.1,0,5.6,2.5,5.6,5.6
		S192.2,11.1,189.1,11.1z"/>
	<path id="XMLID_527_" class="st3" d="M216.9,122h-83.4c-3.1,0-5.6-2.5-5.6-5.6c0-3.1,2.5-5.6,5.6-5.6h83.4c3.1,0,5.6,2.5,5.6,5.6
		C222.5,119.5,220,122,216.9,122z"/>
	<path id="XMLID_526_" class="st4" d="M111.2,122H33.4c-3.1,0-5.6-2.5-5.6-5.6c0-3.1,2.5-5.6,5.6-5.6h77.9c3.1,0,5.6,2.5,5.6,5.6
		C116.8,119.5,114.3,122,111.2,122z"/>
	<path id="XMLID_525_" class="st4" d="M11.1,122H5.6c-3.1,0-5.6-2.5-5.6-5.6c0-3.1,2.5-5.6,5.6-5.6h5.6c3.1,0,5.6,2.5,5.6,5.6
		C16.7,119.5,14.2,122,11.1,122z"/>
	<path id="XMLID_524_" class="st0" d="M55.6,144.2H5.6c-3.1,0-5.6-2.5-5.6-5.6c0-3.1,2.5-5.6,5.6-5.6h50.1c3.1,0,5.6,2.5,5.6,5.6
		C61.2,141.7,58.7,144.2,55.6,144.2z"/>
	<path id="XMLID_523_" class="st1" d="M89,144.2H77.9c-3.1,0-5.6-2.5-5.6-5.6c0-3.1,2.5-5.6,5.6-5.6H89c3.1,0,5.6,2.5,5.6,5.6
		C94.5,141.7,92.1,144.2,89,144.2z"/>
	<path id="XMLID_522_" class="st2" d="M189.1,144.2h-77.9c-3.1,0-5.6-2.5-5.6-5.6c0-3.1,2.5-5.6,5.6-5.6h77.9c3.1,0,5.6,2.5,5.6,5.6
		C194.7,141.7,192.2,144.2,189.1,144.2z"/>
	<path id="XMLID_521_" class="st1" d="M77.9,77.9H5.6c-3.1,0-5.6-2.5-5.6-5.6c0-3.1,2.5-5.6,5.6-5.6h72.3c3.1,0,5.6,2.5,5.6,5.6
		S80.9,77.9,77.9,77.9z"/>
	<path id="XMLID_520_" class="st2" d="M155.7,77.9h-55.6c-3.1,0-5.6-2.5-5.6-5.6s2.5-5.6,5.6-5.6h55.6c3.1,0,5.6,2.5,5.6,5.6
		S158.8,77.9,155.7,77.9z"/>
	<path id="XMLID_519_" class="st1" d="M178,100.1h-44.5c-3.1,0-5.6-2.5-5.6-5.6s2.5-5.6,5.6-5.6H178c3.1,0,5.6,2.5,5.6,5.6
		S181,100.1,178,100.1z"/>
	<path id="XMLID_518_" class="st3" d="M111.2,100.1H33.4c-3.1,0-5.6-2.5-5.6-5.6s2.5-5.6,5.6-5.6h77.9c3.1,0,5.6,2.5,5.6,5.6
		S114.3,100.1,111.2,100.1z"/>
	<path id="XMLID_517_" class="st2" d="M11.1,100.1H5.6c-3.1,0-5.6-2.5-5.6-5.6S2.5,89,5.6,89h5.6c3.1,0,5.6,2.5,5.6,5.6
		S14.2,100.1,11.1,100.1z"/>
	<path id="XMLID_516_" class="st1" d="M55.6,33.4H5.6c-3.1,0-5.6-2.5-5.6-5.6c0-3.1,2.5-5.6,5.6-5.6h50.1c3.1,0,5.6,2.5,5.6,5.6
		S58.7,33.4,55.6,33.4z"/>
	<path id="XMLID_515_" class="st0" d="M89,33.4H77.9c-3.1,0-5.6-2.5-5.6-5.6s2.5-5.6,5.6-5.6H89c3.1,0,5.6,2.5,5.6,5.6
		S92.1,33.4,89,33.4z"/>
	<path id="XMLID_514_" class="st4" d="M194.7,33.4h-83.4c-3.1,0-5.6-2.5-5.6-5.6s2.5-5.6,5.6-5.6h83.4c3.1,0,5.6,2.5,5.6,5.6
		S197.7,33.4,194.7,33.4z"/>
	<path id="XMLID_513_" class="st0" d="M77.9,55.6H5.6c-3.1,0-5.6-2.5-5.6-5.6c0-3.1,2.5-5.6,5.6-5.6h72.3c3.1,0,5.6,2.5,5.6,5.6
		S80.9,55.6,77.9,55.6z"/>
	<path id="XMLID_512_" class="st2" d="M155.7,55.6h-55.6c-3.1,0-5.6-2.5-5.6-5.6s2.5-5.6,5.6-5.6h55.6c3.1,0,5.6,2.5,5.6,5.6
		S158.8,55.6,155.7,55.6z"/>
	<path id="XMLID_511_" class="st4" d="M216.9,55.6H178c-3.1,0-5.6-2.5-5.6-5.6s2.5-5.6,5.6-5.6h38.9c3.1,0,5.6,2.5,5.6,5.6
		S220,55.6,216.9,55.6z"/>
	<path id="XMLID_510_" class="st3" d="M155.7,166.8h-22.2c-3.1,0-5.6-2.5-5.6-5.6s2.5-5.6,5.6-5.6h22.2c3.1,0,5.6,2.5,5.6,5.6
		S158.8,166.8,155.7,166.8z"/>
	<path id="XMLID_509_" class="st4" d="M111.2,166.8H33.4c-3.1,0-5.6-2.5-5.6-5.6s2.5-5.6,5.6-5.6h77.9c3.1,0,5.6,2.5,5.6,5.6
		S114.3,166.8,111.2,166.8z"/>
	<path id="XMLID_508_" class="st1" d="M11.1,166.8H5.6c-3.1,0-5.6-2.5-5.6-5.6c0-3.1,2.5-5.6,5.6-5.6h5.6c3.1,0,5.6,2.5,5.6,5.6
		S14.2,166.8,11.1,166.8z"/>
	<path id="XMLID_507_" class="st2" d="M55.6,189.1H5.6c-3.1,0-5.6-2.5-5.6-5.6c0-3.1,2.5-5.6,5.6-5.6h50.1c3.1,0,5.6,2.5,5.6,5.6
		C61.2,186.6,58.7,189.1,55.6,189.1z"/>
	<path id="XMLID_506_" class="st3" d="M89,189.1H77.9c-3.1,0-5.6-2.5-5.6-5.6c0-3.1,2.5-5.6,5.6-5.6H89c3.1,0,5.6,2.5,5.6,5.6
		C94.5,186.6,92.1,189.1,89,189.1z"/>
	<path id="XMLID_505_" class="st4" d="M150.2,189.1h-38.9c-3.1,0-5.6-2.5-5.6-5.6c0-3.1,2.5-5.6,5.6-5.6h38.9c3.1,0,5.6,2.5,5.6,5.6
		C155.7,186.6,153.2,189.1,150.2,189.1z"/>
	<path id="XMLID_504_" class="st1" d="M178,189.1h-5.6c-3.1,0-5.6-2.5-5.6-5.6c0-3.1,2.5-5.6,5.6-5.6h5.6c3.1,0,5.6,2.5,5.6,5.6
		C183.5,186.6,181,189.1,178,189.1z"/>
</g>
</svg>
