<?xml version="1.0" encoding="utf-8"?>
<!-- Generator: Adobe Illustrator 21.0.2, SVG Export Plug-In . SVG Version: 6.00 Build 0)  -->
<svg version="1.1" id="Layer_1" xmlns="http://www.w3.org/2000/svg" xmlns:xlink="http://www.w3.org/1999/xlink" x="0px" y="0px"
	 viewBox="0 0 1000 1000" style="enable-background:new 0 0 1000 1000;" xml:space="preserve">
<style type="text/css">
	.st0{fill:#FFFFFF;}
</style>
<path class="st0" d="M713,215.1c0,37.2-9.5,72.2-28.6,104.8c-19.1,32.7-45.4,58.5-79,77.6c-33.6,19.1-69,28.6-106.2,28.6
	c-57.2,0-106.9-20.2-149.1-60.5C308.1,325.1,287,275,287,215.1c0-59.9,20.4-110.7,61.2-152.4C389,20.9,439.4,0,499.3,0
	c59.9,0,110.5,20.6,151.8,61.9C692.4,103.2,713,154.3,713,215.1z M713,787.6c0,59.9-20.9,110.3-62.6,151.1s-92.1,61.2-151.1,61.2
	c-58.1,0-108-20.4-149.8-61.2S287,847.6,287,787.6c0-59.9,20.4-110.7,61.2-152.4c40.8-41.7,91.2-62.6,151.1-62.6
	c59.9,0,110.5,20.6,151.8,61.9C692.4,675.8,713,726.8,713,787.6z"/>
</svg>
